<svg id="Layer_1" enable-background="new 0 0 512 512" viewBox="0 0 512 512" xmlns="http://www.w3.org/2000/svg"><g id="Layer_2_00000094579876740253252840000003382329216679810749_"><g id="user_setting"><path d="m317.9 489.7c-1.7-1-3.5-2-5.2-3l-10.5 4.5c-20.6 8.8-44.5.8-55.7-18.6l-18-31.2c-11.2-19.4-6.1-44.1 11.8-57.6l9.1-6.8c0-1 0-2 0-3s0-2 0-3l-9.1-6.8c-17.9-13.5-22.9-38.2-11.8-57.6l18-31.2c5.4-9.3 13.9-16.3 24-19.7-24.9-11.4-52-17.3-79.4-17.2-105.5-.1-191.1 85.5-191.1 191v55.4c0 15 12.1 27.1 27.1 27.1h294.9c-1.4-3.5-2.3-7.2-2.8-11z"/><circle cx="191.1" cy="104.9" r="104.9"/><path d="m505.5 406.2-21.5-16.1c1.7-10.6 1.7-21.5 0-32.1l21.5-16.1c6.6-4.9 8.4-14 4.3-21.2l-18-31.2c-4.1-7.1-12.9-10.1-20.5-6.8l-24.7 10.5c-8.4-6.8-17.8-12.2-27.8-16.1l-3.2-26.7c-1-8.2-7.9-14.3-16.2-14.3h-36.1c-8.2 0-15.2 6.2-16.2 14.3l-3.2 26.7c-10.1 3.9-19.4 9.3-27.8 16.1l-24.7-10.5c-7.6-3.2-16.4-.3-20.5 6.8l-18 31.2c-4.1 7.1-2.3 16.2 4.3 21.2l21.5 16.1c-1.7 10.6-1.7 21.5 0 32.1l-21.5 16.1c-6.6 5-8.4 14.1-4.3 21.2l18 31.2c4.1 7.1 12.9 10.1 20.5 6.9l24.7-10.6c8.4 6.8 17.8 12.2 27.8 16.1l3.2 26.7c1 8.2 7.9 14.3 16.2 14.3h36.1c8.2 0 15.2-6.2 16.2-14.3l3.2-26.7c10-3.9 19.4-9.3 27.8-16.1l24.7 10.5c7.6 3.2 16.4.3 20.5-6.9l18-31.2c4.1-7 2.3-16.1-4.3-21.1zm-124.2 6.8c-21.5 0-39-17.5-39-39s17.5-39 39-39 39 17.5 39 39-17.5 39-39 39z"/></g></g></svg>