<svg id="Glyph" enable-background="new 0 0 32 32" height="512" viewBox="0 0 32 32" width="512" xmlns="http://www.w3.org/2000/svg"><path d="m20 25.985c-.508.204-1.033.375-1.576.5l-.22 2.866c-.028.366-.334.649-.701.649h-3.007c-.367 0-.672-.283-.7-.648l-.22-2.866c-1.178-.271-2.279-.736-3.274-1.359l-2.185 1.873c-.279.239-.694.223-.954-.037l-2.126-2.126c-.26-.26-.275-.675-.037-.954l1.873-2.185c-.622-.995-1.087-2.096-1.359-3.274l-2.866-.22c-.365-.028-.648-.334-.648-.701v-3.007c0-.367.283-.672.648-.7l2.866-.22c.271-1.178.736-2.279 1.359-3.274l-1.872-2.185c-.239-.278-.223-.694.036-.953l2.126-2.126c.259-.259.675-.275.954-.037l2.185 1.873c.995-.622 2.096-1.087 3.274-1.359l.22-2.866c.028-.366.334-.649.701-.649h3.007c.367 0 .672.283.7.648l.013.167c-.776 1.191-1.217 2.595-1.217 4.08 0 1.202.284 2.354.803 3.382-.569-.18-1.175-.277-1.803-.277-3.314 0-6 2.686-6 6s2.686 6 6 6c1.539 0 2.938-.584 4-1.537z"/><path d="m27 11.789v15.711c0 1.381-1.119 2.5-2.5 2.5-1.381 0-2.5-1.119-2.5-2.5v-15.711c-1.78-.911-3-2.758-3-4.895 0-2.065 1.14-3.861 2.824-4.801.077-.042.176.018.176.106v5.801l2.5 1 2.5-1v-5.801c0-.088.099-.148.176-.105 1.684.94 2.824 2.735 2.824 4.801 0 2.136-1.22 3.984-3 4.894z"/></svg>